<svg width="18" height="18" viewBox="0 0 18 18" fill="none" xmlns="http://www.w3.org/2000/svg">
<path fill-rule="evenodd" clip-rule="evenodd" d="M16.23 12.26L13.69 11.97C13.08 11.9 12.48 12.11 12.05 12.54L10.21 14.38C7.38 12.94 5.05999 10.63 3.61999 7.79001L5.47 5.94001C5.89999 5.51001 6.10999 4.91001 6.03999 4.30001L5.74999 1.78001C5.62999 0.77001 4.77999 0.0100098 3.75999 0.0100098H2.02999C0.899995 0.0100098 -0.0400051 0.95001 0.0299949 2.08001C0.559995 10.62 7.39 17.44 15.92 17.97C17.05 18.04 17.99 17.1 17.99 15.97V14.24C18 13.23 17.24 12.38 16.23 12.26Z" fill="#0A142F"/>
</svg>
